<?xml version="1.0" encoding="UTF-8"?>
<svg id="Layer_2" data-name="Layer 2" xmlns="http://www.w3.org/2000/svg" viewBox="0 0 1024 1024">
  <circle cx="197.61" cy="640.79" r="60.61"/>
  <path d="M632.82,498.91c21.75,9.2,37.02,30.74,37.02,55.84,0,8.37-6.78,15.15-15.15,15.15s-15.15-6.78-15.15-15.15c0-16.74-13.57-30.3-30.3-30.3s-30.3,13.57-30.3,30.3v30.27c0,8.37-6.78,15.15-15.15,15.15s-15.15-6.78-15.15-15.15v-232.22s0,.12,0,.12h0c0-12.88-7.98-24.72-20.21-28.68-21.01-6.81-40.39,8.67-40.39,28.67v170.26c0,15.63-11.37,29.52-26.9,31.21-6.98.76-13.54-.85-18.99-4.13,0,0-82.89-47.86-82.89-47.86-4.79-2.77-7.92-8.09-7.55-14.1.51-8.12,7.81-14.18,15.95-14.18h12.18c40.79,0,75.89-31.35,77.81-72.1,2.05-43.5-32.62-79.42-75.67-79.42-13.8,0-26.74,3.69-37.89,10.14h0c-7.25,4.2-16.51,1.71-20.7-5.53-1.41-2.83-3.85-4.6-6.98-4.6h-80.9s-48.86,0-48.86,0c-25.55,0-47.87,19.28-49.52,44.79-1.81,27.94,20.32,51.17,47.88,51.17h48.2c4.02,0,7.87-1.6,10.71-4.44l8.73-8.73c13.71-13.71,32.65-22.19,53.57-22.19h75.2c7.33,0,14.04,4.96,15.42,12.15,1.86,9.68-5.52,18.15-14.86,18.15,0,0-45.45,0-45.45,0-12.96,0-25.83,5.53-34.82,16.24l-59.46,71.38c-5.38,6.41-4.54,15.97,1.87,21.35,1.75,1.47,3.74,2.48,5.82,3.03,132.05,35.38,156.38,76.4,246.99,167.01,5.32,5.32,12.6,8.67,20.67,8.87,17.08.42,31.06-13.22,31.06-30.3h0c0-8.37,6.78-15.15,15.15-15.15s15.15,6.78,15.15,15.15h0c0,16.74,13.57,30.3,30.3,30.3s30.3-13.57,30.3-30.3h0c0-29.31,25.97-53.08,58-53.08,12.35,0,23.95-7.61,28.45-19.87,3.53-9.63,1.87-19.9-3.56-27.74-4.3-6.19-7.53-13.31-9.33-21.17-7.26-31.71,12.97-63.32,44.25-72.23l118.66-33.77c6.64-1.88,11.43-8.19,10.97-15.53-.5-8.13-7.81-14.19-15.96-14.19h-216.34c-25.1,0-45.45,20.35-45.45,45.45,0,18.13,10.61,33.78,25.96,41.08"/>
</svg>